# AST/ASF file generated using VICON BodyLanguage
# -----------------------------------------------
:version 1.10
:name VICON
:units
  mass 1.0
  length 0.45
  angle deg
:documentation
   .ast/.asf automatically generated from VICON data using
   VICON BodyBuilder and BodyLanguage model FoxedUp or BRILLIANT.MOD
:root
   order TX TY TZ RX RY RZ
   axis XYZ
   position 0 0 0  
   orientation 0 0 0 
:bonedata
  begin
     id 1 
     name lhipjoint
     direction 0.541323 -0.757556 0.364798 
     length 2.47576 
     axis 0 0 0  XYZ
  end
  begin
     id 2 
     name lfemur
     direction 0.34202 -0.939693 0  
     length 7.46493  
     axis 0 0 20  XYZ
    dof rx ry rz
    limits (-160.0 20.0)
           (-70.0 70.0)
           (-60.0 70.0)
  end
  begin
     id 3 
     name ltibia
     direction 0.34202 -0.939693 0   
     length 7.73805   
     axis 0 0 20   XYZ
    dof rx
    limits (-10.0 170.0)
  end
  begin
     id 4 
     name lfoot
     direction 0.107174 -0.294458 0.949636   
     length 2.25864   
     axis -90 7.62852e-016 20   XYZ
    dof rx rz
    limits (-45.0 90.0)
           (-70.0 20.0)
  end
  begin
     id 5 
     name ltoes
     direction 1.53606e-011 -4.21934e-011 1   
     length 1.12451   
     axis -90 7.62852e-016 20   XYZ
    dof rx
    limits (-90.0 20.0)
  end
  begin
     id 6 
     name rhipjoint
     direction -0.524745 -0.766967 0.36933   
     length 2.44538  
     axis 0 0 0  XYZ 
  end
  begin
     id 7 
     name rfemur
     direction -0.34202 -0.939693 0   
     length 7.61604   
     axis 0 0 -20   XYZ
    dof rx ry rz
    limits (-160.0 20.0)
           (-70.0 70.0)
           (-70.0 60.0)
  end
  begin
     id 8 
     name rtibia
     direction -0.34202 -0.939693 0   
     length 7.61056   
     axis 0 0 -20   XYZ
    dof rx
    limits (-10.0 170.0)
 end
 begin
     id 9 
     name rfoot
     direction -0.12616 -0.346623 0.929482   
     length 2.46372  
     axis -90 -7.62852e-016 -20   XYZ
    dof rx rz
    limits (-45.0 90.0)
           (-20.0 70.0)
  end
  begin
     id 10 
     name rtoes
     direction -1.53531e-011 -4.22004e-011 1   
     length 1.21611   
     axis -90 -7.62852e-016 -20   XYZ
    dof rx
    limits (-90.0 20.0)
  end
  begin
     id 11 
     name lowerback
     direction -0.000778023 0.997293 -0.0735223   
     length 2.06139   
     axis 0 0 0   XYZ
    dof rx ry rz
    limits (-20.0 45.0)
           (-30.0 30.0)
           (-30.0 30.0)
  end
  begin
     id 12 
     name upperback
     direction 0.0222598 0.999722 -0.0078355   
     length 2.06383   
     axis 0 0 0   XYZ
    dof rx ry rz
    limits (-20.0 45.0)
           (-30.0 30.0)
           (-30.0 30.0)
  end
  begin
     id 13 
     name thorax
     direction 0.0219654 0.999405 0.0265994   
     length 2.07163   
     axis 0 0 0   XYZ
    dof rx ry rz
    limits (-20.0 45.0)
           (-30.0 30.0)
           (-30.0 30.0)
  end
  begin
     id 14 
     name lowerneck
     direction 0.0213282 0.988147 0.15202   
     length 1.75969   
     axis 0 0 0   XYZ
    dof rx ry rz
    limits (-20.0 45.0)
           (-30.0 30.0)
           (-30.0 30.0)
  end
  begin
     id 15 
     name upperneck
     direction -0.0546456 0.982624 -0.177379   
     length 1.79244   
     axis 0 0 0   XYZ
    dof rx ry rz
    limits (-20.0 45.0)
           (-30.0 30.0)
           (-30.0 30.0)
  end
  begin
     id 16
     name head
     direction -0.0199987 0.996855 -0.076686  
     length 1.80555  
     axis 0 0 0   XYZ
    dof rx ry rz
    limits (-20.0 45.0)
           (-30.0 30.0)
           (-30.0 30.0)
  end
  begin
     id 17 
     name lclavicle
     direction 0.929565 0.363219 -0.063096  
     length 3.55722  
     axis 0 0 0   XYZ
    dof ry rz
    limits (-20.0 10.0)
           (0.0 20.0)
  end
  begin
     id 18 
     name lhumerus
     direction 1 -4.48993e-011 -2.36203e-027   
     length 4.92785   
     axis 180 -30 -90   XYZ
    dof rx ry rz
    limits (-60.0 90.0)
           (-90.0 90.0)
           (-90.0 90.0)
  end
  begin
     id 19
     name lradius
     direction 1 -4.48947e-011 2.02997e-027   
     length 3.44052   
     axis 180 -30 -90   XYZ
    dof rx
    limits (-10.0 170.0)
  end
  begin
     id 20
     name lwrist
     direction 1 -4.48962e-011 1.45991e-027   
     length 1.72026   
     axis 1.49639e-024 90 90   XYZ
    dof ry
    limits (-180.0 0.0)
 end
  begin
     id 21 
     name lhand
     direction 1 -4.48984e-011 2.91906e-027   
     length 0.654326   
     axis -1.863e-015 90 90   XYZ
    dof rx rz
    limits (-90.0 90.0)
           (-45.0 45.0)
  end
  begin
     id 22 
     name lfingers
     direction 1 -4.48961e-011 5.83968e-027   
     length 0.527534   
     axis -3.72598e-015 90 90   XYZ
    dof rx
    limits (0.0 90.0)
  end
  begin
     id 23
     name lthumb
     direction 0.707107 -6.34963e-011 0.707107   
     length 0.757437   
     axis -90 45 -6.68868e-015   XYZ
    dof rx rz
    limits (-45.0 45.0)
           (-45.0 45.0)
  end
  begin
     id 24 
     name rclavicle
     direction -0.902944 0.422599 -0.0781198   
     length 3.54432  
     axis 0 0 0   XYZ 
    dof ry rz
    limits (-10.0 20.0)
           (-20.0 0.0)
  end
  begin
     id 25 
     name rhumerus
     direction -1 -4.48953e-011 -4.75835e-028  
     length 5.09181   
     axis 180 30 90   XYZ
    dof rx ry rz
    limits (-90.0 60.0)
           (-90.0 90.0)
           (-90.0 90.0)
  end
  begin
     id 26 
     name rradius
     direction -1 -4.48986e-011 -3.25889e-027   
     length 3.49865   
     axis 180 30 90   XYZ
    dof rx
    limits (-10.0 170.0)
  end
  begin
     id 27 
     name rwrist
     direction -1 -4.48963e-011 1.45989e-027   
     length 1.74933   
     axis 1.49639e-024 -90 -90   XYZ
    dof ry
    limits (-180.0 0.0)
  end
  begin
     id 28
     name rhand
     direction -1 -4.49003e-011 2.91844e-027   
     length 0.66641   
     axis -1.863e-015 -90 -90   XYZ
    dof rx rz
    limits (-90.0 90.0)
           (-45.0 45.0)
  end
  begin
     id 29
     name rfingers
     direction -1 -4.48973e-011 5.83886e-027   
     length 0.537277   
     axis -3.72598e-015 -90 -90   XYZ
    dof rx
    limits (0.0 90.0)
  end
  begin
     id 30
     name rthumb
     direction -0.707107 -6.34976e-011 0.707107   
     length 0.771425   
     axis -90 -45 6.68868e-015   XYZ
    dof rx rz
    limits (-45.0 45.0)
           (-45.0 45.0)
  end
:hierarchy
  begin
    root lhipjoint rhipjoint lowerback
    lhipjoint lfemur
    lfemur ltibia
    ltibia lfoot
    lfoot ltoes
    rhipjoint rfemur
    rfemur rtibia
    rtibia rfoot
    rfoot rtoes
    lowerback upperback
    upperback thorax
    thorax lowerneck lclavicle rclavicle
    lowerneck upperneck
    upperneck head
    lclavicle lhumerus
    lhumerus lradius
    lradius lwrist
    lwrist lhand lthumb
    lhand lfingers
    rclavicle rhumerus
    rhumerus rradius
    rradius rwrist
    rwrist rhand rthumb
    rhand rfingers
  end

#!OML:ASF H:\LiuWeirdWalks\Patient Classification 1\Patient 1\Session 1\male.ASF
:FULLY-SPECIFIED
:DEGREES
1
root -0.264334 18.1914 -22.4912 3.15236 3.26561 7.92078
lowerback 12.4802 0.804441 9.44069
upperback 3.12478 2.74763 10.4441
thorax -3.79022 1.31746 5.38007
lowerneck -17.9394 -2.76536 5.63402
upperneck 24.0331 0.595306 -23.7373
head 10.8568 -2.00861 -9.91645
rclavicle -2.94201e-014 -5.08889e-014
rhumerus -36.9344 -39.0988 -16.8697
rradius 29.4551
rwrist -4.07341
rhand -23.3961 -0.766026
rfingers 7.12502
rthumb 3.06056 -30.7238
lclavicle -2.94201e-014 -5.08889e-014
lhumerus -31.1067 28.1901 17.0481
lradius 37.2013
lwrist 10.5902
lhand -17.1949 -0.900726
lfingers 7.12502
lthumb 9.04723 28.8853
rfemur -14.5753 -2.16794 10.2974
rtibia 31.2246
rfoot -14.0771 -14.5185
rtoes -0.507286
lfemur -14.3832 5.95872 -20.9747
ltibia 38.3748
lfoot -7.26304 11.7152
ltoes -18.8515
2
root -0.276595 18.1888 -22.4396 3.11032 3.16158 7.80465
lowerback 12.536 0.789346 9.3093
upperback 3.15608 2.71068 10.352
thorax -3.78799 1.29993 5.35647
lowerneck -18.0075 -2.63752 5.84223
upperneck 23.9222 0.707733 -23.7657
head 10.8494 -1.9399 -9.94795
rclavicle -3.73715e-014 -1.30403e-013
rhumerus -37.039 -39.1305 -16.1254
rradius 29.5405
rwrist -4.03687
rhand -23.433 -0.859239
rfingers 7.12502
rthumb 3.02497 -30.8175
lclavicle -3.73715e-014 -1.30403e-013
lhumerus -31.2647 28.2918 17.0544
lradius 37.1311
lwrist 10.7199
lhand -17.0506 -0.958855
lfingers 7.12502
lthumb 9.1865 28.821
rfemur -14.4837 -1.88361 10.5325
rtibia 31.3782
rfoot -14.056 -14.9454
rtoes -0.557375
lfemur -14.7675 6.01058 -20.876
ltibia 37.7639
lfoot -7.45994 11.933
ltoes -18.7983
3
root -0.289962 18.1858 -22.3891 3.06806 3.06261 7.69425
lowerback 12.5909 0.76719 9.15141
upperback 3.19818 2.65874 10.2483
thorax -3.77393 1.27555 5.3374
lowerneck -18.1833 -2.45276 6.1513
upperneck 23.8179 0.888346 -23.8531
head 10.8807 -1.8419 -10.024
rclavicle 1.74931e-014 -5.40694e-014
rhumerus -37.0981 -39.1679 -15.4202
rradius 29.6163
rwrist -3.92543
rhand -23.4508 -0.914485
rfingers 7.12502
rthumb 3.00773 -30.873
lclavicle 1.74931e-014 -5.40694e-014
lhumerus -31.424 28.4107 17.0404
lradius 37.0556
lwrist 10.8228
lhand -16.8536 -1.04978
lfingers 7.12502
lthumb 9.37661 28.7217
rfemur -14.3994 -1.51893 10.7764
rtibia 31.5506
rfoot -14.0525 -15.4579
rtoes -0.589989
lfemur -15.1647 6.04292 -20.7752
ltibia 37.2119
lfoot -7.64327 12.1644
ltoes -18.6972
4
root -0.305012 18.1835 -22.3403 3.01857 2.98494 7.57816
lowerback 12.6146 0.730197 8.97449
upperback 3.28047 2.57273 10.1179
thorax -3.69796 1.23601 5.30521
lowerneck -18.3499 -2.21943 6.54969
upperneck 23.5807 1.09302 -23.9601
head 10.8665 -1.72211 -10.1076
rclavicle -4.05521e-014 -2.22639e-014
rhumerus -37.0637 -39.1734 -14.8371
rradius 29.692
rwrist -3.75209
rhand -23.4408 -0.910474
rfingers 7.12502
rthumb 3.01741 -30.8689
lclavicle -4.05521e-014 -2.22639e-014
lhumerus -31.5383 28.5425 17.0242
lradius 36.9725
lwrist 10.8519
lhand -16.7855 -1.02047
lfingers 7.12502
lthumb 9.44232 28.748
rfemur -14.2985 -1.09185 11.0455
rtibia 31.7212
rfoot -14.0993 -16.0312
rtoes -0.542015
lfemur -15.5272 6.04677 -20.6562
ltibia 36.6613
lfoot -7.73823 12.348
ltoes -18.5542
5
root -0.319261 18.1796 -22.2911 2.96847 2.91507 7.45583
lowerback 12.6445 0.691504 8.81455
upperback 3.34545 2.49074 9.9954
thorax -3.64375 1.19766 5.27189
lowerneck -18.4493 -2.04599 6.81164
upperneck 23.3884 1.23597 -23.9737
head 10.8432 -1.63218 -10.1326
rclavicle 1.43125e-014 6.36111e-014
rhumerus -37.047 -39.1665 -14.2217
rradius 29.7579
rwrist -3.58694
rhand -23.4165 -0.908635
rfingers 7.12502
rthumb 3.0409 -30.8667
lclavicle 1.43125e-014 6.36111e-014
lhumerus -31.6633 28.6534 17.0127
lradius 36.8894
lwrist 10.9076
lhand -16.7282 -1.02142
lfingers 7.12502
lthumb 9.49764 28.7445
rfemur -14.1981 -0.728371 11.3139
rtibia 31.894
rfoot -14.1328 -16.5506
rtoes -0.514586
lfemur -15.9004 6.05342 -20.5326
ltibia 36.1321
lfoot -7.86591 12.5188
ltoes -18.4449
6
root -0.333612 18.1754 -22.2425 2.91347 2.869 7.32593
lowerback 12.6659 0.641258 8.65924
upperback 3.41282 2.3924 9.86628
thorax -3.58134 1.15134 5.23163
lowerneck -18.494 -1.90629 6.98283
upperneck 23.1811 1.33454 -23.9043
head 10.7937 -1.55965 -10.1044
rclavicle -6.36111e-015 1.59028e-014
rhumerus -37.0029 -39.1197 -13.6382
rradius 29.8209
rwrist -3.4018
rhand -23.365 -0.878946
rfingers 7.12502
rthumb 3.09057 -30.8363
lclavicle -6.36111e-015 1.59028e-014
lhumerus -31.7771 28.7504 17.0055
lradius 36.8035
lwrist 10.9462
lhand -16.7337 -1.00776
lfingers 7.12502
lthumb 9.49233 28.7585
rfemur -14.0805 -0.390822 11.592
rtibia 32.0535
rfoot -14.1743 -17.0545
rtoes -0.470972
lfemur -16.2717 6.04674 -20.3983
ltibia 35.6344
lfoot -7.97391 12.6521
ltoes -18.346
7
root -0.34778 18.1713 -22.1942 2.85261 2.85366 7.18593
lowerback 12.6789 0.578228 8.51611
upperback 3.47865 2.27781 9.7327
thorax -3.51475 1.09695 5.1825
lowerneck -18.4673 -1.81549 7.03324
upperneck 22.964 1.37263 -23.7317
head 10.7127 -1.51184 -10.0104
rclavicle 3.18055e-015 -1.27222e-014
rhumerus -36.9394 -39.018 -13.0792
rradius 29.8854
rwrist -3.22071
rhand -23.2853 -0.827259
rfingers 7.12502
rthumb 3.16761 -30.7835
lclavicle 3.18055e-015 -1.27222e-014
lhumerus -31.8768 28.8291 17.0106
lradius 36.7169
lwrist 10.9715
lhand -16.8061 -0.985001
lfingers 7.12502
lthumb 9.4224 28.7844
rfemur -13.9387 -0.100904 11.8784
rtibia 32.1912
rfoot -14.2174 -17.523
rtoes -0.422718
lfemur -16.637 6.02734 -20.253
ltibia 35.1584
lfoot -8.05756 12.7364
ltoes -18.2709
8
root -0.361601 18.1673 -22.1461 2.78573 2.87363 7.03218
lowerback 12.6844 0.502423 8.39132
upperback 3.53977 2.14854 9.59754
thorax -3.44795 1.03516 5.12398
lowerneck -18.3803 -1.76874 6.97701
upperneck 22.7485 1.3585 -23.469
head 10.6088 -1.48568 -9.86111
rclavicle -1.59028e-015 -6.04305e-014
rhumerus -36.8646 -38.8514 -12.5363
rradius 29.9564
rwrist -3.07025
rhand -23.1803 -0.762558
rfingers 7.12502
rthumb 3.26895 -30.7172
lclavicle -1.59028e-015 -6.04305e-014
lhumerus -31.9593 28.8876 17.036
lradius 36.6334
lwrist 10.9898
lhand -16.9313 -0.967208
lfingers 7.12502
lthumb 9.30163 28.8076
rfemur -13.7657 0.131138 12.174
rtibia 32.2941
rfoot -14.2529 -17.9458
rtoes -0.382684
lfemur -17.0045 5.9944 -20.0945
ltibia 34.72
lfoot -8.1254 12.7689
ltoes -18.2276
9
root -0.375035 18.1636 -22.098 2.71329 2.9288 6.86238
lowerback 12.683 0.416004 8.28731
upperback 3.59552 2.00802 9.46329
thorax -3.38215 0.967676 5.05684
lowerneck -18.2587 -1.74647 6.86282
upperneck 22.5406 1.31606 -23.1548
head 10.4951 -1.47092 -9.68282
rclavicle -2.62396e-014 -1.24042e-013
rhumerus -36.7853 -38.6231 -11.9997
rradius 30.0373
rwrist -2.97113
rhand -23.0574 -0.697377
rfingers 7.12502
rthumb 3.3877 -30.6502
lclavicle -2.62396e-014 -1.24042e-013
lhumerus -32.0199 28.9287 17.0905
lradius 36.559
lwrist 11.0061
lhand -17.0872 -0.958586
lfingers 7.12502
lthumb 9.15119 28.8229
rfemur -13.5587 0.305394 12.4797
rtibia 32.3556
rfoot -14.2751 -18.32
rtoes -0.360394
lfemur -17.376 5.94767 -19.9215
ltibia 34.3218
lfoot -8.18006 12.7521
ltoes -18.2179
10
root -0.388203 18.1603 -22.0501 2.63666 3.01436 6.67179
lowerback 12.676 0.322619 8.20499
upperback 3.64695 1.86134 9.33346
thorax -3.31734 0.897032 4.98351
lowerneck -18.1342 -1.72389 6.74989
upperneck 22.3448 1.27522 -22.8359
head 10.3862 -1.45484 -9.50591
rclavicle 1.43125e-014 1.59028e-014
rhumerus -36.7054 -38.3499 -11.4592
rradius 30.1274
rwrist -2.9305
rhand -22.9258 -0.641148
rfingers 7.12502
rthumb 3.51476 -30.5919
lclavicle 1.43125e-014 1.59028e-014
lhumerus -32.055 28.9582 17.1804
lradius 36.4998
lwrist 11.024
lhand -17.2501 -0.960533
lfingers 7.12502
lthumb 8.99402 28.8277
rfemur -13.3194 0.431296 12.8012
rtibia 32.3726
rfoot -14.2822 -18.6498
rtoes -0.358609
lfemur -17.7536 5.88758 -19.7286
ltibia 33.965
lfoot -8.22391 12.6946
ltoes -18.2382
11
root -0.401275 18.1573 -22.0023 2.55796 3.12089 6.45639
lowerback 12.6647 0.227177 8.14241
upperback 3.6953 1.71485 9.21108
thorax -3.25344 0.826393 4.90736
lowerneck -18.0416 -1.67873 6.69094
upperneck 22.1739 1.26447 -22.5546
head 10.2994 -1.42605 -9.35758
rclavicle 1.59028e-015 1.27222e-014
rhumerus -36.6287 -38.0601 -10.9027
rradius 30.2221
rwrist -2.93323
rhand -22.7959 -0.601043
rfingers 7.12502
rthumb 3.64023 -30.5497
lclavicle 1.59028e-015 1.27222e-014
lhumerus -32.0638 28.9771 17.3101
lradius 36.464
lwrist 11.0541
lhand -17.3994 -0.968872
lfingers 7.12502
lthumb 8.84994 28.8256
rfemur -13.0531 0.521702 13.1443
rtibia 32.3458
rfoot -14.2757 -18.9411
rtoes -0.37223
lfemur -18.1381 5.81697 -19.5107
ltibia 33.6493
lfoot -8.25936 12.6099
ltoes -18.2833
